<svg width="272" height="55" viewBox="0 0 272 55" fill="none" xmlns="http://www.w3.org/2000/svg">
<g filter="url(#filter0_d_463_49)">
<path d="M60.6452 29V12.71H54.1952V8H73.0052V12.71H66.5852V29H60.6452ZM74.6259 29V12.74H80.0559V17.48L79.2459 16.13C79.7259 14.91 80.5059 14 81.5859 13.4C82.6659 12.78 83.9759 12.47 85.5159 12.47V17.6C85.2559 17.56 85.0259 17.54 84.8259 17.54C84.6459 17.52 84.4459 17.51 84.2259 17.51C83.0659 17.51 82.1259 17.83 81.4059 18.47C80.6859 19.09 80.3259 20.11 80.3259 21.53V29H74.6259ZM87.8681 29V12.74H93.5681V29H87.8681ZM90.7181 10.94C89.6781 10.94 88.8381 10.65 88.1981 10.07C87.5581 9.49 87.2381 8.77 87.2381 7.91C87.2381 7.05 87.5581 6.33 88.1981 5.75C88.8381 5.17 89.6781 4.88 90.7181 4.88C91.7581 4.88 92.5981 5.16 93.2381 5.72C93.8781 6.26 94.1981 6.96 94.1981 7.82C94.1981 8.72 93.8781 9.47 93.2381 10.07C92.6181 10.65 91.7781 10.94 90.7181 10.94ZM107.502 29.27C106.122 29.27 104.942 28.97 103.962 28.37C102.982 27.75 102.232 26.83 101.712 25.61C101.212 24.37 100.962 22.79 100.962 20.87C100.962 18.93 101.202 17.35 101.682 16.13C102.162 14.89 102.882 13.97 103.842 13.37C104.822 12.77 106.042 12.47 107.502 12.47C108.982 12.47 110.322 12.82 111.522 13.52C112.742 14.2 113.702 15.17 114.402 16.43C115.122 17.67 115.482 19.15 115.482 20.87C115.482 22.59 115.122 24.08 114.402 25.34C113.702 26.6 112.742 27.57 111.522 28.25C110.322 28.93 108.982 29.27 107.502 29.27ZM97.2724 34.82V12.74H102.702V15.5L102.672 20.87L102.972 26.27V34.82H97.2724ZM106.302 24.74C106.942 24.74 107.512 24.59 108.012 24.29C108.532 23.99 108.942 23.55 109.242 22.97C109.562 22.39 109.722 21.69 109.722 20.87C109.722 20.05 109.562 19.35 109.242 18.77C108.942 18.19 108.532 17.75 108.012 17.45C107.512 17.15 106.942 17 106.302 17C105.662 17 105.082 17.15 104.562 17.45C104.062 17.75 103.652 18.19 103.332 18.77C103.032 19.35 102.882 20.05 102.882 20.87C102.882 21.69 103.032 22.39 103.332 22.97C103.652 23.55 104.062 23.99 104.562 24.29C105.082 24.59 105.662 24.74 106.302 24.74ZM127.132 29V8H136.732C138.652 8 140.302 8.31 141.682 8.93C143.082 9.55 144.162 10.45 144.922 11.63C145.682 12.79 146.062 14.17 146.062 15.77C146.062 17.35 145.682 18.72 144.922 19.88C144.162 21.04 143.082 21.94 141.682 22.58C140.302 23.2 138.652 23.51 136.732 23.51H130.432L133.072 20.93V29H127.132ZM133.072 21.56L130.432 18.83H136.372C137.612 18.83 138.532 18.56 139.132 18.02C139.752 17.48 140.062 16.73 140.062 15.77C140.062 14.79 139.752 14.03 139.132 13.49C138.532 12.95 137.612 12.68 136.372 12.68H130.432L133.072 9.95V21.56ZM148.981 29V6.74H154.681V29H148.981ZM168.316 29V25.97L167.926 25.22V19.64C167.926 18.74 167.646 18.05 167.086 17.57C166.546 17.07 165.676 16.82 164.476 16.82C163.696 16.82 162.906 16.95 162.106 17.21C161.306 17.45 160.626 17.79 160.066 18.23L158.146 14.36C159.066 13.76 160.166 13.3 161.446 12.98C162.746 12.64 164.036 12.47 165.316 12.47C167.956 12.47 169.996 13.08 171.436 14.3C172.896 15.5 173.626 17.39 173.626 19.97V29H168.316ZM163.516 29.27C162.216 29.27 161.116 29.05 160.216 28.61C159.316 28.17 158.626 27.57 158.146 26.81C157.686 26.05 157.456 25.2 157.456 24.26C157.456 23.26 157.706 22.4 158.206 21.68C158.726 20.94 159.516 20.38 160.576 20C161.636 19.6 163.006 19.4 164.686 19.4H168.526V22.37H165.466C164.546 22.37 163.896 22.52 163.516 22.82C163.156 23.12 162.976 23.52 162.976 24.02C162.976 24.52 163.166 24.92 163.546 25.22C163.926 25.52 164.446 25.67 165.106 25.67C165.726 25.67 166.286 25.52 166.786 25.22C167.306 24.9 167.686 24.42 167.926 23.78L168.706 25.88C168.406 27 167.816 27.85 166.936 28.43C166.076 28.99 164.936 29.27 163.516 29.27ZM187.814 12.47C189.074 12.47 190.214 12.73 191.234 13.25C192.254 13.75 193.054 14.53 193.634 15.59C194.234 16.65 194.534 18.02 194.534 19.7V29H188.834V20.63C188.834 19.47 188.594 18.63 188.114 18.11C187.654 17.57 187.004 17.3 186.164 17.3C185.564 17.3 185.014 17.44 184.514 17.72C184.014 17.98 183.624 18.39 183.344 18.95C183.064 19.51 182.924 20.24 182.924 21.14V29H177.224V12.74H182.654V17.36L181.604 16.01C182.224 14.83 183.074 13.95 184.154 13.37C185.234 12.77 186.454 12.47 187.814 12.47ZM208.702 12.47C209.962 12.47 211.102 12.73 212.122 13.25C213.142 13.75 213.942 14.53 214.522 15.59C215.122 16.65 215.422 18.02 215.422 19.7V29H209.722V20.63C209.722 19.47 209.482 18.63 209.002 18.11C208.542 17.57 207.892 17.3 207.052 17.3C206.452 17.3 205.902 17.44 205.402 17.72C204.902 17.98 204.512 18.39 204.232 18.95C203.952 19.51 203.812 20.24 203.812 21.14V29H198.112V12.74H203.542V17.36L202.492 16.01C203.112 14.83 203.962 13.95 205.042 13.37C206.122 12.77 207.342 12.47 208.702 12.47ZM227.726 29.27C225.806 29.27 224.126 28.91 222.686 28.19C221.266 27.45 220.156 26.45 219.356 25.19C218.576 23.91 218.186 22.46 218.186 20.84C218.186 19.22 218.566 17.78 219.326 16.52C220.106 15.24 221.176 14.25 222.536 13.55C223.896 12.83 225.426 12.47 227.126 12.47C228.726 12.47 230.186 12.8 231.506 13.46C232.826 14.1 233.876 15.05 234.656 16.31C235.436 17.57 235.826 19.1 235.826 20.9C235.826 21.1 235.816 21.33 235.796 21.59C235.776 21.85 235.756 22.09 235.736 22.31H222.866V19.31H232.706L230.546 20.15C230.566 19.41 230.426 18.77 230.126 18.23C229.846 17.69 229.446 17.27 228.926 16.97C228.426 16.67 227.836 16.52 227.156 16.52C226.476 16.52 225.876 16.67 225.356 16.97C224.856 17.27 224.466 17.7 224.186 18.26C223.906 18.8 223.766 19.44 223.766 20.18V21.05C223.766 21.85 223.926 22.54 224.246 23.12C224.586 23.7 225.066 24.15 225.686 24.47C226.306 24.77 227.046 24.92 227.906 24.92C228.706 24.92 229.386 24.81 229.946 24.59C230.526 24.35 231.096 23.99 231.656 23.51L234.656 26.63C233.876 27.49 232.916 28.15 231.776 28.61C230.636 29.05 229.286 29.27 227.726 29.27ZM238.454 29V12.74H243.884V17.48L243.074 16.13C243.554 14.91 244.334 14 245.414 13.4C246.494 12.78 247.804 12.47 249.344 12.47V17.6C249.084 17.56 248.854 17.54 248.654 17.54C248.474 17.52 248.274 17.51 248.054 17.51C246.894 17.51 245.954 17.83 245.234 18.47C244.514 19.09 244.154 20.11 244.154 21.53V29H238.454Z" fill="black"/>
</g>
<path d="M61.252 41.158C61.4293 41.158 61.588 41.228 61.728 41.368C61.8773 41.4987 61.952 41.6667 61.952 41.872C61.952 41.9467 61.938 42.0213 61.91 42.096C61.8913 42.1613 61.8587 42.2313 61.812 42.306L58.606 46.842L58.83 46.016V50.286C58.83 50.4913 58.76 50.664 58.62 50.804C58.48 50.9347 58.3213 51 58.144 51C57.948 51 57.78 50.9347 57.64 50.804C57.5093 50.664 57.444 50.4913 57.444 50.286V46.128L57.542 46.534L54.448 42.404C54.3733 42.3013 54.322 42.208 54.294 42.124C54.266 42.0307 54.252 41.942 54.252 41.858C54.252 41.6527 54.3313 41.4847 54.49 41.354C54.658 41.2233 54.826 41.158 54.994 41.158C55.218 41.158 55.4093 41.2653 55.568 41.48L58.368 45.316L58.032 45.274L60.664 41.494C60.8227 41.27 61.0187 41.158 61.252 41.158ZM69.6376 47.318C69.6376 48.0647 69.4742 48.7273 69.1476 49.306C68.8209 49.8753 68.3776 50.3233 67.8176 50.65C67.2576 50.9767 66.6276 51.14 65.9276 51.14C65.2276 51.14 64.5976 50.9767 64.0376 50.65C63.4776 50.3233 63.0296 49.8753 62.6936 49.306C62.3669 48.7273 62.2036 48.0647 62.2036 47.318C62.2036 46.562 62.3669 45.8993 62.6936 45.33C63.0296 44.7513 63.4776 44.2987 64.0376 43.972C64.5976 43.636 65.2276 43.468 65.9276 43.468C66.6276 43.468 67.2576 43.636 67.8176 43.972C68.3776 44.2987 68.8209 44.7513 69.1476 45.33C69.4742 45.8993 69.6376 46.562 69.6376 47.318ZM68.2376 47.318C68.2376 46.8047 68.1349 46.3613 67.9296 45.988C67.7242 45.6053 67.4442 45.3067 67.0896 45.092C66.7442 44.868 66.3569 44.756 65.9276 44.756C65.4982 44.756 65.1062 44.868 64.7516 45.092C64.3969 45.3067 64.1169 45.6053 63.9116 45.988C63.7062 46.3613 63.6036 46.8047 63.6036 47.318C63.6036 47.8127 63.7062 48.2513 63.9116 48.634C64.1169 49.0167 64.3969 49.3153 64.7516 49.53C65.1062 49.7447 65.4982 49.852 65.9276 49.852C66.3569 49.852 66.7442 49.7447 67.0896 49.53C67.4442 49.3153 67.7242 49.0167 67.9296 48.634C68.1349 48.2513 68.2376 47.8127 68.2376 47.318ZM76.7102 43.636C76.9062 43.636 77.0695 43.706 77.2002 43.846C77.3402 43.9767 77.4102 44.1447 77.4102 44.35V48.032C77.4102 49.0027 77.1395 49.7633 76.5982 50.314C76.0569 50.8553 75.2915 51.126 74.3022 51.126C73.3222 51.126 72.5615 50.8553 72.0202 50.314C71.4882 49.7633 71.2222 49.0027 71.2222 48.032V44.35C71.2222 44.1447 71.2875 43.9767 71.4182 43.846C71.5489 43.706 71.7169 43.636 71.9222 43.636C72.1182 43.636 72.2815 43.706 72.4122 43.846C72.5522 43.9767 72.6222 44.1447 72.6222 44.35V48.032C72.6222 48.6387 72.7622 49.0913 73.0422 49.39C73.3315 49.6887 73.7515 49.838 74.3022 49.838C74.8622 49.838 75.2869 49.6887 75.5762 49.39C75.8655 49.0913 76.0102 48.6387 76.0102 48.032V44.35C76.0102 44.1447 76.0755 43.9767 76.2062 43.846C76.3369 43.706 76.5049 43.636 76.7102 43.636ZM80.057 51C79.8516 51 79.6836 50.9347 79.553 50.804C79.4223 50.664 79.357 50.4913 79.357 50.286V44.35C79.357 44.1447 79.4223 43.9767 79.553 43.846C79.6836 43.706 79.8516 43.636 80.057 43.636C80.253 43.636 80.4163 43.706 80.547 43.846C80.687 43.9767 80.757 44.1447 80.757 44.35V45.918L80.617 45.316C80.6916 45.0547 80.8036 44.812 80.953 44.588C81.1116 44.364 81.2983 44.168 81.513 44C81.7276 43.832 81.9656 43.7013 82.227 43.608C82.4976 43.5147 82.7776 43.468 83.067 43.468C83.3096 43.468 83.5196 43.5333 83.697 43.664C83.8743 43.7947 83.963 43.958 83.963 44.154C83.963 44.406 83.8976 44.5927 83.767 44.714C83.6363 44.826 83.4916 44.882 83.333 44.882C83.193 44.882 83.0576 44.854 82.927 44.798C82.7963 44.7327 82.6423 44.7 82.465 44.7C82.269 44.7 82.0683 44.7513 81.863 44.854C81.6576 44.9567 81.471 45.1107 81.303 45.316C81.135 45.512 80.9996 45.7453 80.897 46.016C80.8036 46.2867 80.757 46.59 80.757 46.926V50.286C80.757 50.4913 80.687 50.664 80.547 50.804C80.4163 50.9347 80.253 51 80.057 51ZM93.207 41.2C93.7017 41.2 94.159 41.3353 94.579 41.606C94.999 41.8673 95.335 42.2267 95.587 42.684C95.839 43.1413 95.965 43.6547 95.965 44.224C95.965 44.7933 95.839 45.3113 95.587 45.778C95.335 46.2353 94.999 46.604 94.579 46.884C94.159 47.1547 93.7017 47.29 93.207 47.29H90.505L90.617 47.066V50.286C90.617 50.4913 90.5517 50.664 90.421 50.804C90.2997 50.9347 90.1363 51 89.931 51C89.735 51 89.5717 50.9347 89.441 50.804C89.3197 50.664 89.259 50.4913 89.259 50.286V41.914C89.259 41.7087 89.329 41.5407 89.469 41.41C89.609 41.27 89.777 41.2 89.973 41.2H93.207ZM93.207 45.946C93.4497 45.946 93.669 45.8667 93.865 45.708C94.0703 45.5493 94.2337 45.3393 94.355 45.078C94.4857 44.8167 94.551 44.532 94.551 44.224C94.551 43.916 94.4857 43.636 94.355 43.384C94.2337 43.132 94.0703 42.9313 93.865 42.782C93.669 42.6233 93.4497 42.544 93.207 42.544H90.477L90.617 42.334V46.128L90.491 45.946H93.207ZM100.806 51.14C100.032 51.14 99.3598 50.9813 98.7905 50.664C98.2212 50.3373 97.7778 49.894 97.4605 49.334C97.1525 48.7647 96.9985 48.116 96.9985 47.388C96.9985 46.5667 97.1618 45.8667 97.4885 45.288C97.8245 44.7 98.2585 44.252 98.7905 43.944C99.3225 43.6267 99.8872 43.468 100.484 43.468C100.942 43.468 101.376 43.5613 101.786 43.748C102.197 43.9253 102.561 44.1773 102.878 44.504C103.205 44.8213 103.462 45.1993 103.648 45.638C103.835 46.0673 103.933 46.5387 103.942 47.052C103.933 47.2387 103.858 47.3927 103.718 47.514C103.578 47.6353 103.415 47.696 103.228 47.696H97.7825L97.4465 46.506H102.71L102.444 46.758V46.408C102.426 46.0813 102.318 45.7967 102.122 45.554C101.926 45.302 101.684 45.1107 101.394 44.98C101.105 44.84 100.802 44.77 100.484 44.77C100.204 44.77 99.9338 44.8167 99.6725 44.91C99.4205 44.994 99.1918 45.134 98.9865 45.33C98.7905 45.526 98.6318 45.7873 98.5105 46.114C98.3985 46.4313 98.3425 46.828 98.3425 47.304C98.3425 47.8173 98.4498 48.2653 98.6645 48.648C98.8792 49.0307 99.1685 49.3293 99.5325 49.544C99.8965 49.7493 100.298 49.852 100.736 49.852C101.082 49.852 101.366 49.8193 101.59 49.754C101.814 49.6793 102.001 49.5907 102.15 49.488C102.3 49.3853 102.43 49.2873 102.542 49.194C102.682 49.11 102.822 49.068 102.962 49.068C103.13 49.068 103.27 49.1287 103.382 49.25C103.494 49.362 103.55 49.4973 103.55 49.656C103.55 49.8613 103.448 50.048 103.242 50.216C102.99 50.4587 102.64 50.6733 102.192 50.86C101.754 51.0467 101.292 51.14 100.806 51.14ZM106.225 51C106.02 51 105.852 50.9347 105.721 50.804C105.59 50.664 105.525 50.4913 105.525 50.286V44.35C105.525 44.1447 105.59 43.9767 105.721 43.846C105.852 43.706 106.02 43.636 106.225 43.636C106.421 43.636 106.584 43.706 106.715 43.846C106.855 43.9767 106.925 44.1447 106.925 44.35V45.918L106.785 45.316C106.86 45.0547 106.972 44.812 107.121 44.588C107.28 44.364 107.466 44.168 107.681 44C107.896 43.832 108.134 43.7013 108.395 43.608C108.666 43.5147 108.946 43.468 109.235 43.468C109.478 43.468 109.688 43.5333 109.865 43.664C110.042 43.7947 110.131 43.958 110.131 44.154C110.131 44.406 110.066 44.5927 109.935 44.714C109.804 44.826 109.66 44.882 109.501 44.882C109.361 44.882 109.226 44.854 109.095 44.798C108.964 44.7327 108.81 44.7 108.633 44.7C108.437 44.7 108.236 44.7513 108.031 44.854C107.826 44.9567 107.639 45.1107 107.471 45.316C107.303 45.512 107.168 45.7453 107.065 46.016C106.972 46.2867 106.925 46.59 106.925 46.926V50.286C106.925 50.4913 106.855 50.664 106.715 50.804C106.584 50.9347 106.421 51 106.225 51ZM110.942 49.852C110.858 49.7213 110.821 49.572 110.83 49.404C110.84 49.2267 110.938 49.0773 111.124 48.956C111.255 48.872 111.39 48.8393 111.53 48.858C111.68 48.8673 111.82 48.9373 111.95 49.068C112.212 49.3573 112.501 49.586 112.818 49.754C113.145 49.922 113.537 50.006 113.994 50.006C114.181 49.9967 114.372 49.9687 114.568 49.922C114.764 49.866 114.932 49.7727 115.072 49.642C115.212 49.502 115.282 49.3013 115.282 49.04C115.282 48.8067 115.208 48.62 115.058 48.48C114.909 48.34 114.713 48.228 114.47 48.144C114.228 48.0507 113.966 47.9667 113.686 47.892C113.388 47.808 113.084 47.7147 112.776 47.612C112.478 47.5093 112.207 47.3787 111.964 47.22C111.722 47.052 111.521 46.8373 111.362 46.576C111.213 46.3147 111.138 45.9927 111.138 45.61C111.138 45.1713 111.26 44.7933 111.502 44.476C111.754 44.1587 112.076 43.9113 112.468 43.734C112.87 43.5567 113.304 43.468 113.77 43.468C114.041 43.468 114.326 43.5053 114.624 43.58C114.923 43.6453 115.212 43.7527 115.492 43.902C115.772 44.0513 116.015 44.2473 116.22 44.49C116.314 44.6113 116.365 44.756 116.374 44.924C116.393 45.092 116.318 45.2413 116.15 45.372C116.038 45.4653 115.903 45.5073 115.744 45.498C115.586 45.4887 115.455 45.4373 115.352 45.344C115.175 45.12 114.946 44.9473 114.666 44.826C114.386 44.6953 114.069 44.63 113.714 44.63C113.537 44.63 113.35 44.658 113.154 44.714C112.968 44.7607 112.809 44.8493 112.678 44.98C112.548 45.1107 112.482 45.302 112.482 45.554C112.482 45.7873 112.557 45.974 112.706 46.114C112.865 46.254 113.07 46.3707 113.322 46.464C113.574 46.5573 113.85 46.6413 114.148 46.716C114.438 46.7907 114.722 46.8793 115.002 46.982C115.292 47.0847 115.548 47.22 115.772 47.388C116.006 47.5467 116.192 47.7567 116.332 48.018C116.482 48.27 116.556 48.592 116.556 48.984C116.556 49.4413 116.421 49.8333 116.15 50.16C115.889 50.4773 115.553 50.72 115.142 50.888C114.741 51.056 114.316 51.14 113.868 51.14C113.336 51.14 112.804 51.0467 112.272 50.86C111.75 50.664 111.306 50.328 110.942 49.852ZM125.118 47.318C125.118 48.0647 124.955 48.7273 124.628 49.306C124.301 49.8753 123.858 50.3233 123.298 50.65C122.738 50.9767 122.108 51.14 121.408 51.14C120.708 51.14 120.078 50.9767 119.518 50.65C118.958 50.3233 118.51 49.8753 118.174 49.306C117.847 48.7273 117.684 48.0647 117.684 47.318C117.684 46.562 117.847 45.8993 118.174 45.33C118.51 44.7513 118.958 44.2987 119.518 43.972C120.078 43.636 120.708 43.468 121.408 43.468C122.108 43.468 122.738 43.636 123.298 43.972C123.858 44.2987 124.301 44.7513 124.628 45.33C124.955 45.8993 125.118 46.562 125.118 47.318ZM123.718 47.318C123.718 46.8047 123.615 46.3613 123.41 45.988C123.205 45.6053 122.925 45.3067 122.57 45.092C122.225 44.868 121.837 44.756 121.408 44.756C120.979 44.756 120.587 44.868 120.232 45.092C119.877 45.3067 119.597 45.6053 119.392 45.988C119.187 46.3613 119.084 46.8047 119.084 47.318C119.084 47.8127 119.187 48.2513 119.392 48.634C119.597 49.0167 119.877 49.3153 120.232 49.53C120.587 49.7447 120.979 49.852 121.408 49.852C121.837 49.852 122.225 49.7447 122.57 49.53C122.925 49.3153 123.205 49.0167 123.41 48.634C123.615 48.2513 123.718 47.8127 123.718 47.318ZM130.497 43.468C131.159 43.468 131.673 43.608 132.037 43.888C132.401 44.1587 132.653 44.5273 132.793 44.994C132.942 45.4513 133.017 45.9647 133.017 46.534V50.286C133.017 50.4913 132.947 50.664 132.807 50.804C132.676 50.9347 132.513 51 132.317 51C132.111 51 131.943 50.9347 131.813 50.804C131.682 50.664 131.617 50.4913 131.617 50.286V46.548C131.617 46.212 131.57 45.9133 131.477 45.652C131.383 45.3813 131.22 45.1667 130.987 45.008C130.763 44.84 130.445 44.756 130.035 44.756C129.652 44.756 129.316 44.84 129.027 45.008C128.737 45.1667 128.509 45.3813 128.341 45.652C128.182 45.9133 128.103 46.212 128.103 46.548V50.286C128.103 50.4913 128.033 50.664 127.893 50.804C127.762 50.9347 127.599 51 127.403 51C127.197 51 127.029 50.9347 126.899 50.804C126.768 50.664 126.703 50.4913 126.703 50.286V44.35C126.703 44.1447 126.768 43.9767 126.899 43.846C127.029 43.706 127.197 43.636 127.403 43.636C127.599 43.636 127.762 43.706 127.893 43.846C128.033 43.9767 128.103 44.1447 128.103 44.35V45.134L127.851 45.274C127.916 45.0687 128.028 44.8633 128.187 44.658C128.355 44.4433 128.555 44.2473 128.789 44.07C129.022 43.8833 129.283 43.7387 129.573 43.636C129.862 43.524 130.17 43.468 130.497 43.468ZM140.994 43.524C141.2 43.524 141.368 43.594 141.498 43.734C141.629 43.8647 141.694 44.0327 141.694 44.238V50.286C141.694 50.4913 141.629 50.664 141.498 50.804C141.368 50.9347 141.2 51 140.994 51C140.798 51 140.63 50.9347 140.49 50.804C140.36 50.664 140.294 50.4913 140.294 50.286V49.278L140.588 49.32C140.588 49.488 140.518 49.6747 140.378 49.88C140.248 50.0853 140.066 50.286 139.832 50.482C139.599 50.6687 139.324 50.8273 139.006 50.958C138.689 51.0793 138.348 51.14 137.984 51.14C137.34 51.14 136.762 50.9767 136.248 50.65C135.735 50.314 135.329 49.8567 135.03 49.278C134.732 48.6993 134.582 48.0413 134.582 47.304C134.582 46.548 134.732 45.8853 135.03 45.316C135.329 44.7373 135.73 44.2847 136.234 43.958C136.748 43.6313 137.317 43.468 137.942 43.468C138.344 43.468 138.712 43.5333 139.048 43.664C139.394 43.7947 139.692 43.9627 139.944 44.168C140.196 44.3733 140.388 44.5927 140.518 44.826C140.658 45.05 140.728 45.2647 140.728 45.47L140.294 45.512V44.238C140.294 44.042 140.36 43.874 140.49 43.734C140.63 43.594 140.798 43.524 140.994 43.524ZM138.138 49.852C138.577 49.852 138.964 49.74 139.3 49.516C139.636 49.292 139.898 48.9887 140.084 48.606C140.271 48.214 140.364 47.78 140.364 47.304C140.364 46.8187 140.271 46.3847 140.084 46.002C139.898 45.6193 139.636 45.316 139.3 45.092C138.964 44.868 138.577 44.756 138.138 44.756C137.709 44.756 137.326 44.868 136.99 45.092C136.664 45.316 136.402 45.6193 136.206 46.002C136.02 46.3847 135.926 46.8187 135.926 47.304C135.926 47.78 136.02 48.214 136.206 48.606C136.402 48.9887 136.664 49.292 136.99 49.516C137.326 49.74 137.709 49.852 138.138 49.852ZM145.168 50.286C145.168 50.4913 145.098 50.664 144.958 50.804C144.827 50.9347 144.664 51 144.468 51C144.272 51 144.104 50.9347 143.964 50.804C143.833 50.664 143.768 50.4913 143.768 50.286V41.354C143.768 41.1487 143.838 40.9807 143.978 40.85C144.118 40.71 144.286 40.64 144.482 40.64C144.687 40.64 144.85 40.71 144.972 40.85C145.102 40.9807 145.168 41.1487 145.168 41.354V50.286ZM152.772 50.286C152.763 50.4913 152.683 50.664 152.534 50.804C152.394 50.9347 152.226 51 152.03 51C151.815 51 151.638 50.9347 151.498 50.804C151.367 50.664 151.302 50.4913 151.302 50.286V41.914C151.302 41.7087 151.372 41.5407 151.512 41.41C151.652 41.27 151.834 41.2 152.058 41.2C152.245 41.2 152.408 41.27 152.548 41.41C152.697 41.5407 152.772 41.7087 152.772 41.914V50.286ZM154.782 43.72H158.072C158.259 43.72 158.413 43.7853 158.534 43.916C158.665 44.0373 158.73 44.1913 158.73 44.378C158.73 44.5553 158.665 44.7047 158.534 44.826C158.413 44.9473 158.259 45.008 158.072 45.008H154.782C154.596 45.008 154.437 44.9473 154.306 44.826C154.185 44.6953 154.124 44.5413 154.124 44.364C154.124 44.1773 154.185 44.0233 154.306 43.902C154.437 43.7807 154.596 43.72 154.782 43.72ZM156.252 41.9C156.458 41.9 156.626 41.97 156.756 42.11C156.887 42.2407 156.952 42.4087 156.952 42.614V49.11C156.952 49.278 156.98 49.4133 157.036 49.516C157.092 49.6187 157.167 49.6887 157.26 49.726C157.363 49.7633 157.466 49.782 157.568 49.782C157.671 49.782 157.76 49.7633 157.834 49.726C157.918 49.6887 158.016 49.67 158.128 49.67C158.24 49.67 158.343 49.7213 158.436 49.824C158.53 49.9267 158.576 50.0667 158.576 50.244C158.576 50.468 158.455 50.65 158.212 50.79C157.97 50.93 157.708 51 157.428 51C157.27 51 157.083 50.986 156.868 50.958C156.654 50.93 156.444 50.86 156.238 50.748C156.042 50.636 155.879 50.4587 155.748 50.216C155.618 49.964 155.552 49.614 155.552 49.166V42.614C155.552 42.4087 155.618 42.2407 155.748 42.11C155.888 41.97 156.056 41.9 156.252 41.9ZM161.597 50.286C161.597 50.4913 161.531 50.664 161.401 50.804C161.27 50.9347 161.102 51 160.897 51C160.701 51 160.533 50.9347 160.393 50.804C160.262 50.664 160.197 50.4913 160.197 50.286V44.294C160.197 44.0887 160.262 43.9207 160.393 43.79C160.533 43.65 160.701 43.58 160.897 43.58C161.102 43.58 161.27 43.65 161.401 43.79C161.531 43.9207 161.597 44.0887 161.597 44.294V50.286ZM160.883 42.656C160.612 42.656 160.416 42.6093 160.295 42.516C160.173 42.4133 160.113 42.2453 160.113 42.012V41.788C160.113 41.5547 160.178 41.3913 160.309 41.298C160.439 41.2047 160.635 41.158 160.897 41.158C161.177 41.158 161.377 41.2093 161.499 41.312C161.62 41.4053 161.681 41.564 161.681 41.788V42.012C161.681 42.2547 161.615 42.4227 161.485 42.516C161.363 42.6093 161.163 42.656 160.883 42.656ZM167.274 43.468C167.937 43.468 168.45 43.608 168.814 43.888C169.178 44.1587 169.43 44.5273 169.57 44.994C169.719 45.4513 169.794 45.9647 169.794 46.534V50.286C169.794 50.4913 169.724 50.664 169.584 50.804C169.453 50.9347 169.29 51 169.094 51C168.889 51 168.721 50.9347 168.59 50.804C168.459 50.664 168.394 50.4913 168.394 50.286V46.548C168.394 46.212 168.347 45.9133 168.254 45.652C168.161 45.3813 167.997 45.1667 167.764 45.008C167.54 44.84 167.223 44.756 166.812 44.756C166.429 44.756 166.093 44.84 165.804 45.008C165.515 45.1667 165.286 45.3813 165.118 45.652C164.959 45.9133 164.88 46.212 164.88 46.548V50.286C164.88 50.4913 164.81 50.664 164.67 50.804C164.539 50.9347 164.376 51 164.18 51C163.975 51 163.807 50.9347 163.676 50.804C163.545 50.664 163.48 50.4913 163.48 50.286V44.35C163.48 44.1447 163.545 43.9767 163.676 43.846C163.807 43.706 163.975 43.636 164.18 43.636C164.376 43.636 164.539 43.706 164.67 43.846C164.81 43.9767 164.88 44.1447 164.88 44.35V45.134L164.628 45.274C164.693 45.0687 164.805 44.8633 164.964 44.658C165.132 44.4433 165.333 44.2473 165.566 44.07C165.799 43.8833 166.061 43.7387 166.35 43.636C166.639 43.524 166.947 43.468 167.274 43.468ZM175.168 51.14C174.393 51.14 173.721 50.9813 173.152 50.664C172.582 50.3373 172.139 49.894 171.822 49.334C171.514 48.7647 171.36 48.116 171.36 47.388C171.36 46.5667 171.523 45.8667 171.85 45.288C172.186 44.7 172.62 44.252 173.152 43.944C173.684 43.6267 174.248 43.468 174.846 43.468C175.303 43.468 175.737 43.5613 176.148 43.748C176.558 43.9253 176.922 44.1773 177.24 44.504C177.566 44.8213 177.823 45.1993 178.01 45.638C178.196 46.0673 178.294 46.5387 178.304 47.052C178.294 47.2387 178.22 47.3927 178.08 47.514C177.94 47.6353 177.776 47.696 177.59 47.696H172.144L171.808 46.506H177.072L176.806 46.758V46.408C176.787 46.0813 176.68 45.7967 176.484 45.554C176.288 45.302 176.045 45.1107 175.756 44.98C175.466 44.84 175.163 44.77 174.846 44.77C174.566 44.77 174.295 44.8167 174.034 44.91C173.782 44.994 173.553 45.134 173.348 45.33C173.152 45.526 172.993 45.7873 172.872 46.114C172.76 46.4313 172.704 46.828 172.704 47.304C172.704 47.8173 172.811 48.2653 173.026 48.648C173.24 49.0307 173.53 49.3293 173.894 49.544C174.258 49.7493 174.659 49.852 175.098 49.852C175.443 49.852 175.728 49.8193 175.952 49.754C176.176 49.6793 176.362 49.5907 176.512 49.488C176.661 49.3853 176.792 49.2873 176.904 49.194C177.044 49.11 177.184 49.068 177.324 49.068C177.492 49.068 177.632 49.1287 177.744 49.25C177.856 49.362 177.912 49.4973 177.912 49.656C177.912 49.8613 177.809 50.048 177.604 50.216C177.352 50.4587 177.002 50.6733 176.554 50.86C176.115 51.0467 175.653 51.14 175.168 51.14ZM180.586 51C180.381 51 180.213 50.9347 180.082 50.804C179.952 50.664 179.886 50.4913 179.886 50.286V44.35C179.886 44.1447 179.952 43.9767 180.082 43.846C180.213 43.706 180.381 43.636 180.586 43.636C180.782 43.636 180.946 43.706 181.076 43.846C181.216 43.9767 181.286 44.1447 181.286 44.35V45.918L181.146 45.316C181.221 45.0547 181.333 44.812 181.482 44.588C181.641 44.364 181.828 44.168 182.042 44C182.257 43.832 182.495 43.7013 182.756 43.608C183.027 43.5147 183.307 43.468 183.596 43.468C183.839 43.468 184.049 43.5333 184.226 43.664C184.404 43.7947 184.492 43.958 184.492 44.154C184.492 44.406 184.427 44.5927 184.296 44.714C184.166 44.826 184.021 44.882 183.862 44.882C183.722 44.882 183.587 44.854 183.456 44.798C183.326 44.7327 183.172 44.7 182.994 44.7C182.798 44.7 182.598 44.7513 182.392 44.854C182.187 44.9567 182 45.1107 181.832 45.316C181.664 45.512 181.529 45.7453 181.426 46.016C181.333 46.2867 181.286 46.59 181.286 46.926V50.286C181.286 50.4913 181.216 50.664 181.076 50.804C180.946 50.9347 180.782 51 180.586 51ZM191.608 43.524C191.813 43.524 191.981 43.594 192.112 43.734C192.242 43.8647 192.308 44.0327 192.308 44.238V50.286C192.308 50.4913 192.242 50.664 192.112 50.804C191.981 50.9347 191.813 51 191.608 51C191.412 51 191.244 50.9347 191.104 50.804C190.973 50.664 190.908 50.4913 190.908 50.286V49.278L191.202 49.32C191.202 49.488 191.132 49.6747 190.992 49.88C190.861 50.0853 190.679 50.286 190.446 50.482C190.212 50.6687 189.937 50.8273 189.62 50.958C189.302 51.0793 188.962 51.14 188.598 51.14C187.954 51.14 187.375 50.9767 186.862 50.65C186.348 50.314 185.942 49.8567 185.644 49.278C185.345 48.6993 185.196 48.0413 185.196 47.304C185.196 46.548 185.345 45.8853 185.644 45.316C185.942 44.7373 186.344 44.2847 186.848 43.958C187.361 43.6313 187.93 43.468 188.556 43.468C188.957 43.468 189.326 43.5333 189.662 43.664C190.007 43.7947 190.306 43.9627 190.558 44.168C190.81 44.3733 191.001 44.5927 191.132 44.826C191.272 45.05 191.342 45.2647 191.342 45.47L190.908 45.512V44.238C190.908 44.042 190.973 43.874 191.104 43.734C191.244 43.594 191.412 43.524 191.608 43.524ZM188.752 49.852C189.19 49.852 189.578 49.74 189.914 49.516C190.25 49.292 190.511 48.9887 190.698 48.606C190.884 48.214 190.978 47.78 190.978 47.304C190.978 46.8187 190.884 46.3847 190.698 46.002C190.511 45.6193 190.25 45.316 189.914 45.092C189.578 44.868 189.19 44.756 188.752 44.756C188.322 44.756 187.94 44.868 187.604 45.092C187.277 45.316 187.016 45.6193 186.82 46.002C186.633 46.3847 186.54 46.8187 186.54 47.304C186.54 47.78 186.633 48.214 186.82 48.606C187.016 48.9887 187.277 49.292 187.604 49.516C187.94 49.74 188.322 49.852 188.752 49.852ZM194.969 51C194.764 51 194.596 50.9347 194.465 50.804C194.334 50.664 194.269 50.4913 194.269 50.286V44.35C194.269 44.1447 194.334 43.9767 194.465 43.846C194.596 43.706 194.764 43.636 194.969 43.636C195.165 43.636 195.328 43.706 195.459 43.846C195.599 43.9767 195.669 44.1447 195.669 44.35V45.918L195.529 45.316C195.604 45.0547 195.716 44.812 195.865 44.588C196.024 44.364 196.21 44.168 196.425 44C196.64 43.832 196.878 43.7013 197.139 43.608C197.41 43.5147 197.69 43.468 197.979 43.468C198.222 43.468 198.432 43.5333 198.609 43.664C198.786 43.7947 198.875 43.958 198.875 44.154C198.875 44.406 198.81 44.5927 198.679 44.714C198.548 44.826 198.404 44.882 198.245 44.882C198.105 44.882 197.97 44.854 197.839 44.798C197.708 44.7327 197.554 44.7 197.377 44.7C197.181 44.7 196.98 44.7513 196.775 44.854C196.57 44.9567 196.383 45.1107 196.215 45.316C196.047 45.512 195.912 45.7453 195.809 46.016C195.716 46.2867 195.669 46.59 195.669 46.926V50.286C195.669 50.4913 195.599 50.664 195.459 50.804C195.328 50.9347 195.165 51 194.969 51ZM205.595 43.58C205.8 43.58 205.968 43.65 206.099 43.79C206.229 43.9207 206.295 44.0887 206.295 44.294V50.314C206.295 51.1353 206.136 51.8027 205.819 52.316C205.511 52.8293 205.091 53.2027 204.559 53.436C204.036 53.6787 203.443 53.8 202.781 53.8C202.445 53.8 202.109 53.7673 201.773 53.702C201.437 53.646 201.161 53.562 200.947 53.45C200.723 53.3473 200.564 53.2213 200.471 53.072C200.377 52.9227 200.363 52.7593 200.429 52.582C200.494 52.358 200.606 52.204 200.765 52.12C200.923 52.0453 201.087 52.0407 201.255 52.106C201.413 52.1713 201.623 52.2553 201.885 52.358C202.146 52.4607 202.445 52.512 202.781 52.512C203.238 52.512 203.625 52.4373 203.943 52.288C204.26 52.1387 204.498 51.9053 204.657 51.588C204.825 51.2707 204.909 50.86 204.909 50.356V49.39L205.133 49.726C204.983 50.034 204.787 50.2907 204.545 50.496C204.302 50.7013 204.013 50.86 203.677 50.972C203.35 51.084 202.986 51.14 202.585 51.14C202.071 51.14 201.628 51.028 201.255 50.804C200.891 50.5707 200.611 50.2533 200.415 49.852C200.219 49.4413 200.121 48.9747 200.121 48.452V44.294C200.121 44.0887 200.186 43.9207 200.317 43.79C200.447 43.65 200.615 43.58 200.821 43.58C201.017 43.58 201.18 43.65 201.311 43.79C201.451 43.9207 201.521 44.0887 201.521 44.294V48.074C201.521 48.69 201.656 49.1427 201.927 49.432C202.197 49.712 202.599 49.852 203.131 49.852C203.485 49.852 203.793 49.7773 204.055 49.628C204.316 49.4787 204.521 49.2733 204.671 49.012C204.82 48.7413 204.895 48.4287 204.895 48.074V44.294C204.895 44.0887 204.96 43.9207 205.091 43.79C205.231 43.65 205.399 43.58 205.595 43.58ZM215.806 43.02L212.656 50.58C212.6 50.7293 212.516 50.846 212.404 50.93C212.292 51.014 212.166 51.056 212.026 51.056C211.821 51.056 211.667 51 211.564 50.888C211.461 50.7667 211.405 50.6173 211.396 50.44C211.396 50.3747 211.41 50.3 211.438 50.216L214.994 41.62C215.059 41.4613 215.153 41.34 215.274 41.256C215.405 41.172 215.545 41.1347 215.694 41.144C215.834 41.144 215.965 41.186 216.086 41.27C216.207 41.354 216.296 41.4707 216.352 41.62L219.866 50.09C219.903 50.1833 219.922 50.2767 219.922 50.37C219.922 50.5753 219.852 50.7433 219.712 50.874C219.581 50.9953 219.432 51.056 219.264 51.056C219.124 51.056 218.993 51.014 218.872 50.93C218.76 50.8367 218.676 50.72 218.62 50.58L215.442 43.062L215.806 43.02ZM213.216 48.592L213.846 47.248H217.808L218.046 48.592H213.216ZM220.7 49.852C220.616 49.7213 220.579 49.572 220.588 49.404C220.598 49.2267 220.696 49.0773 220.882 48.956C221.013 48.872 221.148 48.8393 221.288 48.858C221.438 48.8673 221.578 48.9373 221.708 49.068C221.97 49.3573 222.259 49.586 222.576 49.754C222.903 49.922 223.295 50.006 223.752 50.006C223.939 49.9967 224.13 49.9687 224.326 49.922C224.522 49.866 224.69 49.7727 224.83 49.642C224.97 49.502 225.04 49.3013 225.04 49.04C225.04 48.8067 224.966 48.62 224.816 48.48C224.667 48.34 224.471 48.228 224.228 48.144C223.986 48.0507 223.724 47.9667 223.444 47.892C223.146 47.808 222.842 47.7147 222.534 47.612C222.236 47.5093 221.965 47.3787 221.722 47.22C221.48 47.052 221.279 46.8373 221.12 46.576C220.971 46.3147 220.896 45.9927 220.896 45.61C220.896 45.1713 221.018 44.7933 221.26 44.476C221.512 44.1587 221.834 43.9113 222.226 43.734C222.628 43.5567 223.062 43.468 223.528 43.468C223.799 43.468 224.084 43.5053 224.382 43.58C224.681 43.6453 224.97 43.7527 225.25 43.902C225.53 44.0513 225.773 44.2473 225.978 44.49C226.072 44.6113 226.123 44.756 226.132 44.924C226.151 45.092 226.076 45.2413 225.908 45.372C225.796 45.4653 225.661 45.5073 225.502 45.498C225.344 45.4887 225.213 45.4373 225.11 45.344C224.933 45.12 224.704 44.9473 224.424 44.826C224.144 44.6953 223.827 44.63 223.472 44.63C223.295 44.63 223.108 44.658 222.912 44.714C222.726 44.7607 222.567 44.8493 222.436 44.98C222.306 45.1107 222.24 45.302 222.24 45.554C222.24 45.7873 222.315 45.974 222.464 46.114C222.623 46.254 222.828 46.3707 223.08 46.464C223.332 46.5573 223.608 46.6413 223.906 46.716C224.196 46.7907 224.48 46.8793 224.76 46.982C225.05 47.0847 225.306 47.22 225.53 47.388C225.764 47.5467 225.95 47.7567 226.09 48.018C226.24 48.27 226.314 48.592 226.314 48.984C226.314 49.4413 226.179 49.8333 225.908 50.16C225.647 50.4773 225.311 50.72 224.9 50.888C224.499 51.056 224.074 51.14 223.626 51.14C223.094 51.14 222.562 51.0467 222.03 50.86C221.508 50.664 221.064 50.328 220.7 49.852ZM227.386 49.852C227.302 49.7213 227.265 49.572 227.274 49.404C227.283 49.2267 227.381 49.0773 227.568 48.956C227.699 48.872 227.834 48.8393 227.974 48.858C228.123 48.8673 228.263 48.9373 228.394 49.068C228.655 49.3573 228.945 49.586 229.262 49.754C229.589 49.922 229.981 50.006 230.438 50.006C230.625 49.9967 230.816 49.9687 231.012 49.922C231.208 49.866 231.376 49.7727 231.516 49.642C231.656 49.502 231.726 49.3013 231.726 49.04C231.726 48.8067 231.651 48.62 231.502 48.48C231.353 48.34 231.157 48.228 230.914 48.144C230.671 48.0507 230.41 47.9667 230.13 47.892C229.831 47.808 229.528 47.7147 229.22 47.612C228.921 47.5093 228.651 47.3787 228.408 47.22C228.165 47.052 227.965 46.8373 227.806 46.576C227.657 46.3147 227.582 45.9927 227.582 45.61C227.582 45.1713 227.703 44.7933 227.946 44.476C228.198 44.1587 228.52 43.9113 228.912 43.734C229.313 43.5567 229.747 43.468 230.214 43.468C230.485 43.468 230.769 43.5053 231.068 43.58C231.367 43.6453 231.656 43.7527 231.936 43.902C232.216 44.0513 232.459 44.2473 232.664 44.49C232.757 44.6113 232.809 44.756 232.818 44.924C232.837 45.092 232.762 45.2413 232.594 45.372C232.482 45.4653 232.347 45.5073 232.188 45.498C232.029 45.4887 231.899 45.4373 231.796 45.344C231.619 45.12 231.39 44.9473 231.11 44.826C230.83 44.6953 230.513 44.63 230.158 44.63C229.981 44.63 229.794 44.658 229.598 44.714C229.411 44.7607 229.253 44.8493 229.122 44.98C228.991 45.1107 228.926 45.302 228.926 45.554C228.926 45.7873 229.001 45.974 229.15 46.114C229.309 46.254 229.514 46.3707 229.766 46.464C230.018 46.5573 230.293 46.6413 230.592 46.716C230.881 46.7907 231.166 46.8793 231.446 46.982C231.735 47.0847 231.992 47.22 232.216 47.388C232.449 47.5467 232.636 47.7567 232.776 48.018C232.925 48.27 233 48.592 233 48.984C233 49.4413 232.865 49.8333 232.594 50.16C232.333 50.4773 231.997 50.72 231.586 50.888C231.185 51.056 230.76 51.14 230.312 51.14C229.78 51.14 229.248 51.0467 228.716 50.86C228.193 50.664 227.75 50.328 227.386 49.852ZM235.821 50.286C235.821 50.4913 235.756 50.664 235.625 50.804C235.495 50.9347 235.327 51 235.121 51C234.925 51 234.757 50.9347 234.617 50.804C234.487 50.664 234.421 50.4913 234.421 50.286V44.294C234.421 44.0887 234.487 43.9207 234.617 43.79C234.757 43.65 234.925 43.58 235.121 43.58C235.327 43.58 235.495 43.65 235.625 43.79C235.756 43.9207 235.821 44.0887 235.821 44.294V50.286ZM235.107 42.656C234.837 42.656 234.641 42.6093 234.519 42.516C234.398 42.4133 234.337 42.2453 234.337 42.012V41.788C234.337 41.5547 234.403 41.3913 234.533 41.298C234.664 41.2047 234.86 41.158 235.121 41.158C235.401 41.158 235.602 41.2093 235.723 41.312C235.845 41.4053 235.905 41.564 235.905 41.788V42.012C235.905 42.2547 235.84 42.4227 235.709 42.516C235.588 42.6093 235.387 42.656 235.107 42.656ZM237.271 49.852C237.187 49.7213 237.149 49.572 237.159 49.404C237.168 49.2267 237.266 49.0773 237.453 48.956C237.583 48.872 237.719 48.8393 237.859 48.858C238.008 48.8673 238.148 48.9373 238.279 49.068C238.54 49.3573 238.829 49.586 239.147 49.754C239.473 49.922 239.865 50.006 240.323 50.006C240.509 49.9967 240.701 49.9687 240.897 49.922C241.093 49.866 241.261 49.7727 241.401 49.642C241.541 49.502 241.611 49.3013 241.611 49.04C241.611 48.8067 241.536 48.62 241.387 48.48C241.237 48.34 241.041 48.228 240.799 48.144C240.556 48.0507 240.295 47.9667 240.015 47.892C239.716 47.808 239.413 47.7147 239.105 47.612C238.806 47.5093 238.535 47.3787 238.293 47.22C238.05 47.052 237.849 46.8373 237.691 46.576C237.541 46.3147 237.467 45.9927 237.467 45.61C237.467 45.1713 237.588 44.7933 237.831 44.476C238.083 44.1587 238.405 43.9113 238.797 43.734C239.198 43.5567 239.632 43.468 240.099 43.468C240.369 43.468 240.654 43.5053 240.953 43.58C241.251 43.6453 241.541 43.7527 241.821 43.902C242.101 44.0513 242.343 44.2473 242.549 44.49C242.642 44.6113 242.693 44.756 242.703 44.924C242.721 45.092 242.647 45.2413 242.479 45.372C242.367 45.4653 242.231 45.5073 242.073 45.498C241.914 45.4887 241.783 45.4373 241.681 45.344C241.503 45.12 241.275 44.9473 240.995 44.826C240.715 44.6953 240.397 44.63 240.043 44.63C239.865 44.63 239.679 44.658 239.483 44.714C239.296 44.7607 239.137 44.8493 239.007 44.98C238.876 45.1107 238.811 45.302 238.811 45.554C238.811 45.7873 238.885 45.974 239.035 46.114C239.193 46.254 239.399 46.3707 239.651 46.464C239.903 46.5573 240.178 46.6413 240.477 46.716C240.766 46.7907 241.051 46.8793 241.331 46.982C241.62 47.0847 241.877 47.22 242.101 47.388C242.334 47.5467 242.521 47.7567 242.661 48.018C242.81 48.27 242.885 48.592 242.885 48.984C242.885 49.4413 242.749 49.8333 242.479 50.16C242.217 50.4773 241.881 50.72 241.471 50.888C241.069 51.056 240.645 51.14 240.197 51.14C239.665 51.14 239.133 51.0467 238.601 50.86C238.078 50.664 237.635 50.328 237.271 49.852ZM244.292 43.72H247.582C247.769 43.72 247.923 43.7853 248.044 43.916C248.175 44.0373 248.24 44.1913 248.24 44.378C248.24 44.5553 248.175 44.7047 248.044 44.826C247.923 44.9473 247.769 45.008 247.582 45.008H244.292C244.105 45.008 243.947 44.9473 243.816 44.826C243.695 44.6953 243.634 44.5413 243.634 44.364C243.634 44.1773 243.695 44.0233 243.816 43.902C243.947 43.7807 244.105 43.72 244.292 43.72ZM245.762 41.9C245.967 41.9 246.135 41.97 246.266 42.11C246.397 42.2407 246.462 42.4087 246.462 42.614V49.11C246.462 49.278 246.49 49.4133 246.546 49.516C246.602 49.6187 246.677 49.6887 246.77 49.726C246.873 49.7633 246.975 49.782 247.078 49.782C247.181 49.782 247.269 49.7633 247.344 49.726C247.428 49.6887 247.526 49.67 247.638 49.67C247.75 49.67 247.853 49.7213 247.946 49.824C248.039 49.9267 248.086 50.0667 248.086 50.244C248.086 50.468 247.965 50.65 247.722 50.79C247.479 50.93 247.218 51 246.938 51C246.779 51 246.593 50.986 246.378 50.958C246.163 50.93 245.953 50.86 245.748 50.748C245.552 50.636 245.389 50.4587 245.258 50.216C245.127 49.964 245.062 49.614 245.062 49.166V42.614C245.062 42.4087 245.127 42.2407 245.258 42.11C245.398 41.97 245.566 41.9 245.762 41.9ZM255.825 43.524C256.03 43.524 256.198 43.594 256.329 43.734C256.459 43.8647 256.525 44.0327 256.525 44.238V50.286C256.525 50.4913 256.459 50.664 256.329 50.804C256.198 50.9347 256.03 51 255.825 51C255.629 51 255.461 50.9347 255.321 50.804C255.19 50.664 255.125 50.4913 255.125 50.286V49.278L255.419 49.32C255.419 49.488 255.349 49.6747 255.209 49.88C255.078 50.0853 254.896 50.286 254.663 50.482C254.429 50.6687 254.154 50.8273 253.837 50.958C253.519 51.0793 253.179 51.14 252.815 51.14C252.171 51.14 251.592 50.9767 251.079 50.65C250.565 50.314 250.159 49.8567 249.861 49.278C249.562 48.6993 249.413 48.0413 249.413 47.304C249.413 46.548 249.562 45.8853 249.861 45.316C250.159 44.7373 250.561 44.2847 251.065 43.958C251.578 43.6313 252.147 43.468 252.773 43.468C253.174 43.468 253.543 43.5333 253.879 43.664C254.224 43.7947 254.523 43.9627 254.775 44.168C255.027 44.3733 255.218 44.5927 255.349 44.826C255.489 45.05 255.559 45.2647 255.559 45.47L255.125 45.512V44.238C255.125 44.042 255.19 43.874 255.321 43.734C255.461 43.594 255.629 43.524 255.825 43.524ZM252.969 49.852C253.407 49.852 253.795 49.74 254.131 49.516C254.467 49.292 254.728 48.9887 254.915 48.606C255.101 48.214 255.195 47.78 255.195 47.304C255.195 46.8187 255.101 46.3847 254.915 46.002C254.728 45.6193 254.467 45.316 254.131 45.092C253.795 44.868 253.407 44.756 252.969 44.756C252.539 44.756 252.157 44.868 251.821 45.092C251.494 45.316 251.233 45.6193 251.037 46.002C250.85 46.3847 250.757 46.8187 250.757 47.304C250.757 47.78 250.85 48.214 251.037 48.606C251.233 48.9887 251.494 49.292 251.821 49.516C252.157 49.74 252.539 49.852 252.969 49.852ZM262.28 43.468C262.943 43.468 263.456 43.608 263.82 43.888C264.184 44.1587 264.436 44.5273 264.576 44.994C264.725 45.4513 264.8 45.9647 264.8 46.534V50.286C264.8 50.4913 264.73 50.664 264.59 50.804C264.459 50.9347 264.296 51 264.1 51C263.895 51 263.727 50.9347 263.596 50.804C263.465 50.664 263.4 50.4913 263.4 50.286V46.548C263.4 46.212 263.353 45.9133 263.26 45.652C263.167 45.3813 263.003 45.1667 262.77 45.008C262.546 44.84 262.229 44.756 261.818 44.756C261.435 44.756 261.099 44.84 260.81 45.008C260.521 45.1667 260.292 45.3813 260.124 45.652C259.965 45.9133 259.886 46.212 259.886 46.548V50.286C259.886 50.4913 259.816 50.664 259.676 50.804C259.545 50.9347 259.382 51 259.186 51C258.981 51 258.813 50.9347 258.682 50.804C258.551 50.664 258.486 50.4913 258.486 50.286V44.35C258.486 44.1447 258.551 43.9767 258.682 43.846C258.813 43.706 258.981 43.636 259.186 43.636C259.382 43.636 259.545 43.706 259.676 43.846C259.816 43.9767 259.886 44.1447 259.886 44.35V45.134L259.634 45.274C259.699 45.0687 259.811 44.8633 259.97 44.658C260.138 44.4433 260.339 44.2473 260.572 44.07C260.805 43.8833 261.067 43.7387 261.356 43.636C261.645 43.524 261.953 43.468 262.28 43.468ZM266.646 43.72H269.936C270.122 43.72 270.276 43.7853 270.398 43.916C270.528 44.0373 270.594 44.1913 270.594 44.378C270.594 44.5553 270.528 44.7047 270.398 44.826C270.276 44.9473 270.122 45.008 269.936 45.008H266.646C266.459 45.008 266.3 44.9473 266.17 44.826C266.048 44.6953 265.988 44.5413 265.988 44.364C265.988 44.1773 266.048 44.0233 266.17 43.902C266.3 43.7807 266.459 43.72 266.646 43.72ZM268.116 41.9C268.321 41.9 268.489 41.97 268.62 42.11C268.75 42.2407 268.816 42.4087 268.816 42.614V49.11C268.816 49.278 268.844 49.4133 268.9 49.516C268.956 49.6187 269.03 49.6887 269.124 49.726C269.226 49.7633 269.329 49.782 269.432 49.782C269.534 49.782 269.623 49.7633 269.698 49.726C269.782 49.6887 269.88 49.67 269.992 49.67C270.104 49.67 270.206 49.7213 270.3 49.824C270.393 49.9267 270.44 50.0667 270.44 50.244C270.44 50.468 270.318 50.65 270.076 50.79C269.833 50.93 269.572 51 269.292 51C269.133 51 268.946 50.986 268.732 50.958C268.517 50.93 268.307 50.86 268.102 50.748C267.906 50.636 267.742 50.4587 267.612 50.216C267.481 49.964 267.416 49.614 267.416 49.166V42.614C267.416 42.4087 267.481 42.2407 267.612 42.11C267.752 41.97 267.92 41.9 268.116 41.9Z" fill="black"/>
<g clip-path="url(#clip0_463_49)">
<path d="M28.7443 45.4729L29.784 43.6518L37.511 38.4955L40.4488 38.9874C37.4611 42.3513 33.3699 44.7031 28.7443 45.4729ZM36.3927 17.3289C35.2038 16.5947 31.8351 14.1679 31.8351 10.1697C31.8351 7.65428 33.8789 5.60896 36.3927 5.60896C38.9066 5.60896 40.9509 7.65428 40.9509 10.1697C40.9509 14.1679 37.5785 16.5984 36.3927 17.3289ZM13.5224 12.4934L12.7319 18.045L7.52621 25.8597L5.43627 26.7543C5.41821 26.3978 5.40068 26.0377 5.40068 25.678C5.40068 20.0691 7.7148 14.9946 11.4325 11.3497L13.5224 12.4934ZM47.3317 25.678C47.3317 20.7352 45.6328 15.9248 42.5637 12.0658C42.6918 11.4708 42.7736 10.8397 42.7736 10.1697C42.7736 6.64915 39.9107 3.78412 36.3927 3.78412C34.9902 3.78412 33.694 4.24737 32.64 5.01715C30.336 4.21177 27.9257 3.78412 25.4543 3.78412C13.3907 3.78412 3.57743 13.6048 3.57743 25.678C3.57743 28.0336 3.96205 30.3498 4.68827 32.5518C2.27746 36.6855 1.75418 39.372 3.11471 40.7373C3.6024 41.2218 4.26805 41.4641 5.11221 41.4641C6.32293 41.4641 7.89649 40.969 9.8159 39.9745C13.5293 38.0715 18.283 34.5297 23.2007 29.9971L21.9651 28.6572C17.2364 33.0151 12.504 36.5463 8.98236 38.3494C6.03074 39.8783 4.71324 39.7572 4.40352 39.4469C4.0614 39.1016 4.00455 37.74 5.54624 34.7576C5.91333 35.5592 6.31921 36.3471 6.78565 37.1025L8.33796 36.1473C6.93493 33.8598 6.02012 31.3119 5.62858 28.6604L8.49468 27.4274C8.6583 27.3599 8.79377 27.2425 8.89365 27.0964L14.3629 18.886C14.4378 18.7723 14.4872 18.6437 14.5052 18.5082L15.4169 12.1226C15.47 11.7449 15.2851 11.3778 14.9536 11.1924L12.878 10.063C16.3211 7.27974 20.6975 5.60896 25.4543 5.60896C25.7003 5.60896 25.9457 5.6334 26.1917 5.64084L25.5329 7.94274L21.3382 13.8189H19.0735C18.6176 13.8189 18.2298 14.1573 18.1693 14.6099L16.346 28.2933C16.2961 28.6679 16.4815 29.0312 16.8087 29.2129L18.632 30.225L19.5149 28.6323L18.2367 27.9193L19.8714 15.6432H21.8083C22.1037 15.6432 22.3778 15.5008 22.5489 15.2623L27.1065 8.87615C27.1671 8.79062 27.2133 8.69818 27.242 8.59512L28.0431 5.79384C29.1146 5.93303 30.1723 6.15402 31.2051 6.46746C30.4571 7.51137 30.0119 8.78743 30.0119 10.1697C30.0119 16.1389 35.7414 19.0751 35.9837 19.1962C36.1154 19.2605 36.2541 19.2924 36.3927 19.2924C36.5319 19.2924 36.6706 19.2605 36.8023 19.1962C36.984 19.1032 40.2135 17.4463 41.8444 14.1323C42.8984 15.6289 43.7389 17.2577 44.3477 18.9715L36.8666 23.0515C36.61 23.1944 36.4358 23.4473 36.4002 23.7395L35.5311 30.6813L30.379 34.9823L26.3659 37.6582V32.9758C26.3659 32.6443 26.188 32.3383 25.8958 32.1778L24.0731 31.1658L23.1896 32.7585L24.5427 33.5139V39.3614C24.5427 39.6966 24.7281 40.0063 25.0235 40.1668C25.1589 40.238 25.3082 40.2741 25.4543 40.2741C25.6323 40.2741 25.8071 40.2242 25.9601 40.1206L31.4293 36.4714C31.458 36.4539 31.4829 36.4326 31.5079 36.4146L36.9771 31.8532C37.1551 31.704 37.2688 31.4936 37.2975 31.2657L38.1517 24.4306L44.8853 20.7533C45.2912 22.3566 45.5085 24.0067 45.5085 25.678C45.5085 30.0327 44.1123 34.0627 41.7483 37.3517L37.4542 36.6393C37.2263 36.6 36.9909 36.6499 36.7986 36.7779L28.5951 42.2514C28.4776 42.33 28.3815 42.4331 28.3103 42.5579L26.5046 45.7189C26.1561 45.7364 25.8071 45.747 25.4543 45.747C20.4446 45.747 15.648 43.8871 11.9489 40.5126L10.7201 41.8593C14.7544 45.5441 19.9888 47.5719 25.4543 47.5719C37.5179 47.5719 47.3317 37.7512 47.3317 25.678Z" fill="#F8A700"/>
<path d="M36.3928 11.0819C35.8908 11.0819 35.4817 10.6723 35.4817 10.1697C35.4817 9.66767 35.8908 9.25754 36.3928 9.25754C36.8948 9.25754 37.3044 9.66767 37.3044 10.1697C37.3044 10.6723 36.8948 11.0819 36.3928 11.0819ZM36.3928 7.43323C34.883 7.43323 33.6584 8.65882 33.6584 10.1697C33.6584 11.6806 34.883 12.9067 36.3928 12.9067C37.9026 12.9067 39.1277 11.6806 39.1277 10.1697C39.1277 8.65882 37.9026 7.43323 36.3928 7.43323Z" fill="#F8A700"/>
<path d="M25.1875 24.1209L23.8982 25.4108L25.7214 27.2351C25.8994 27.4136 26.131 27.5023 26.3658 27.5023C26.6007 27.5023 26.8323 27.4136 27.0103 27.2351L30.0118 24.2314V27.5023H31.8351V22.4065L33.3911 20.8494L32.1023 19.5596L30.5463 21.1167H25.4542V22.9415H28.723L26.3658 25.3003L25.1875 24.1209Z" fill="#F8A700"/>
<path d="M28.0894 49.2501L28.2886 51.0637C28.9154 50.9963 29.5529 50.9001 30.1793 50.7822L29.8446 48.9897C29.2608 49.1002 28.6732 49.1858 28.0894 49.2501Z" fill="#F8A700"/>
<path d="M31.6003 48.5908L32.0705 50.3546C42.1398 47.6574 49.6777 38.8806 50.821 28.5143L49.0083 28.3151C47.9474 37.9398 40.9509 46.086 31.6003 48.5908Z" fill="#F8A700"/>
<mask id="mask0_463_49" style="mask-type:luminance" maskUnits="userSpaceOnUse" x="0" y="0" width="20" height="24">
<path d="M0 0.956238H19.312V23.12H0V0.956238Z" fill="white"/>
</mask>
<g mask="url(#mask0_463_49)">
<path d="M19.3088 2.76515L18.8386 1.0014C8.7688 3.69856 1.2309 12.4753 0.0876465 22.8416L1.90027 23.0408C2.96118 13.4162 9.95827 5.27 19.3088 2.76515Z" fill="#F8A700"/>
</g>
</g>
<defs>
<filter id="filter0_d_463_49" x="50.1953" y="4.88" width="203.149" height="37.94" filterUnits="userSpaceOnUse" color-interpolation-filters="sRGB">
<feFlood flood-opacity="0" result="BackgroundImageFix"/>
<feColorMatrix in="SourceAlpha" type="matrix" values="0 0 0 0 0 0 0 0 0 0 0 0 0 0 0 0 0 0 127 0" result="hardAlpha"/>
<feOffset dy="4"/>
<feGaussianBlur stdDeviation="2"/>
<feComposite in2="hardAlpha" operator="out"/>
<feColorMatrix type="matrix" values="0 0 0 0 0 0 0 0 0 0 0 0 0 0 0 0 0 0 0.25 0"/>
<feBlend mode="normal" in2="BackgroundImageFix" result="effect1_dropShadow_463_49"/>
<feBlend mode="normal" in="SourceGraphic" in2="effect1_dropShadow_463_49" result="shape"/>
</filter>
<clipPath id="clip0_463_49">
<rect width="51" height="51" fill="white"/>
</clipPath>
</defs>
</svg>
