<svg width="24" height="24" viewBox="0 0 24 24" fill="none" xmlns="http://www.w3.org/2000/svg">
<path d="M9 12.5H10V10.5H11C11.2833 10.5 11.521 10.404 11.713 10.212C11.905 10.02 12.0007 9.78267 12 9.5V8.5C12 8.21667 11.904 7.979 11.712 7.787C11.52 7.595 11.2827 7.49934 11 7.5H9V12.5ZM10 9.5V8.5H11V9.5H10ZM13 12.5H15C15.2833 12.5 15.521 12.404 15.713 12.212C15.905 12.02 16.0007 11.7827 16 11.5V8.5C16 8.21667 15.904 7.979 15.712 7.787C15.52 7.595 15.2827 7.49934 15 7.5H13V12.5ZM14 11.5V8.5H15V11.5H14ZM17 12.5H18V10.5H19V9.5H18V8.5H19V7.5H17V12.5ZM8 18C7.45 18 6.979 17.804 6.587 17.412C6.195 17.02 5.99934 16.5493 6 16V4C6 3.45 6.196 2.979 6.588 2.587C6.98 2.195 7.45067 1.99934 8 2H20C20.55 2 21.021 2.196 21.413 2.588C21.805 2.98 22.0007 3.45067 22 4V16C22 16.55 21.804 17.021 21.412 17.413C21.02 17.805 20.5493 18.0007 20 18H8ZM8 16H20V4H8V16ZM4 22C3.45 22 2.979 21.804 2.587 21.412C2.195 21.02 1.99934 20.5493 2 20V6H4V20H18V22H4Z" fill="black"/>
</svg>
